# Blender 4.4.0
# www.blender.org
mtllib mccreescetchfab.mtl
o Cube
o Cylinder.004
v 0.439796 0.666134 0.310854
v 0.376235 0.644591 -0.268177
v 0.342848 0.648834 0.319997
v 0.299198 0.630844 -0.260912
v 0.278974 0.724343 0.320506
v 0.248441 0.690845 -0.260507
v 0.312047 0.817151 0.311872
v 0.274722 0.764594 -0.267368
v 0.408995 0.834450 0.302729
v 0.351760 0.778340 -0.274634
v 0.472869 0.758942 0.302220
v 0.402517 0.718339 -0.275038
v 0.427788 0.656951 0.166151
v 0.330840 0.639652 0.175295
v 0.266966 0.715160 0.175804
v 0.300039 0.807968 0.167170
v 0.396987 0.825268 0.158027
v 0.460861 0.749759 0.157517
v 0.418036 0.667002 0.157082
v 0.334738 0.652138 0.164938
v 0.279856 0.717016 0.165375
v 0.308273 0.796757 0.157957
v 0.391572 0.811621 0.150101
v 0.446453 0.746744 0.149663
v 0.386693 0.643034 -0.220611
v 0.303394 0.628171 -0.212755
v 0.248513 0.693048 -0.212318
v 0.276930 0.772790 -0.219736
v 0.360228 0.787654 -0.227592
v 0.415110 0.722776 -0.228030
v 0.382953 0.641698 -0.236962
v 0.299655 0.626834 -0.229106
v 0.247099 0.691967 -0.229362
v 0.273191 0.771453 -0.236087
v 0.356489 0.786317 -0.243943
v 0.411370 0.721439 -0.244381
vn 0.1628 -0.9786 -0.1257
vn -0.7705 -0.6361 -0.0400
vn -0.9452 0.3156 -0.0839
vn -0.1914 0.9567 -0.2192
vn -0.0825 -0.0631 -0.9946
vn 0.7332 0.6221 -0.2746
vn 0.9103 -0.3456 -0.2279
vn 0.0825 0.0631 0.9946
vn 0.9388 -0.3398 -0.0563
vn 0.7590 0.6428 -0.1038
vn -0.1798 0.9826 -0.0474
vn -0.9388 0.3398 0.0563
vn -0.7590 -0.6428 0.1038
vn 0.1798 -0.9826 0.0474
vn 0.5034 -0.2562 -0.8252
vn 0.3944 0.3394 -0.8539
vn -0.1746 0.5454 -0.8198
vn -0.6347 0.1558 -0.7569
vn -0.5257 -0.4398 -0.7281
vn 0.0433 -0.6458 -0.7623
vn 0.9207 -0.3451 -0.1823
vn 0.7437 0.6306 -0.2216
vn -0.1791 0.9830 -0.0394
vn -0.9359 0.3311 0.1204
vn -0.7604 -0.6286 0.1629
vn 0.1791 -0.9830 0.0394
s 0
usemtl pants.001
f 16//17 17//17 23//17 22//17
f 15//18 16//18 22//18 21//18
f 24//9 19//9 25//9 30//9
f 23//10 24//10 30//10 29//10
f 22//11 23//11 29//11 28//11
f 21//12 22//12 28//12 27//12
f 20//13 21//13 27//13 26//13
f 19//14 20//14 26//14 25//14
usemtl glowyblue
f 30//21 25//21 31//21 36//21
f 29//22 30//22 36//22 35//22
f 28//23 29//23 35//23 34//23
f 27//24 28//24 34//24 33//24
f 26//25 27//25 33//25 32//25
f 25//26 26//26 32//26 31//26
usemtl metal.002
f 31//1 32//1 4//1 2//1
f 32//2 33//2 6//2 4//2
f 33//3 34//3 8//3 6//3
f 34//4 35//4 10//4 8//4
f 4//5 6//5 8//5 10//5 12//5 2//5
f 35//6 36//6 12//6 10//6
f 36//7 31//7 2//7 12//7
f 1//8 11//8 9//8 7//8 5//8 3//8
f 11//9 1//9 13//9 18//9
f 9//10 11//10 18//10 17//10
f 7//11 9//11 17//11 16//11
f 5//12 7//12 16//12 15//12
f 3//13 5//13 15//13 14//13
f 1//14 3//14 14//14 13//14
f 18//15 13//15 19//15 24//15
f 17//16 18//16 24//16 23//16
f 14//19 15//19 21//19 20//19
f 13//20 14//20 20//20 19//20
o Cylinder.003
v 0.647715 0.705406 0.341973
v 0.584154 0.683863 -0.237059
v 0.550767 0.688106 0.351116
v 0.507117 0.670116 -0.229793
v 0.486893 0.763615 0.351625
v 0.456360 0.730118 -0.229389
v 0.519966 0.856423 0.342991
v 0.482641 0.803866 -0.236250
v 0.616914 0.873722 0.333848
v 0.559679 0.817613 -0.243515
v 0.680788 0.798214 0.333339
v 0.610436 0.757611 -0.243920
v 0.635707 0.696223 0.197270
v 0.538759 0.678924 0.206413
v 0.474885 0.754432 0.206922
v 0.507958 0.847241 0.198288
v 0.604906 0.864540 0.189145
v 0.668780 0.789031 0.188636
v 0.625955 0.706274 0.188201
v 0.542657 0.691410 0.196057
v 0.487775 0.756288 0.196494
v 0.516192 0.836029 0.189075
v 0.599491 0.850893 0.181220
v 0.654372 0.786016 0.180782
v 0.594611 0.682307 -0.189492
v 0.511313 0.667443 -0.181637
v 0.456432 0.732320 -0.181199
v 0.484849 0.812062 -0.188618
v 0.568147 0.826926 -0.196473
v 0.623028 0.762048 -0.196911
v 0.590872 0.680970 -0.205843
v 0.507574 0.666106 -0.197987
v 0.455017 0.731239 -0.198244
v 0.481110 0.810725 -0.204969
v 0.564408 0.825589 -0.212824
v 0.619289 0.760711 -0.213262
vn 0.1628 -0.9786 -0.1257
vn -0.7705 -0.6361 -0.0400
vn -0.9452 0.3156 -0.0839
vn -0.1914 0.9567 -0.2192
vn -0.0825 -0.0631 -0.9946
vn 0.7332 0.6221 -0.2746
vn 0.9103 -0.3456 -0.2279
vn 0.0825 0.0631 0.9946
vn 0.9388 -0.3398 -0.0563
vn 0.7590 0.6428 -0.1038
vn -0.1798 0.9826 -0.0474
vn -0.9388 0.3398 0.0563
vn -0.7590 -0.6428 0.1038
vn 0.1798 -0.9826 0.0474
vn 0.5034 -0.2562 -0.8252
vn 0.3944 0.3394 -0.8539
vn -0.1746 0.5454 -0.8198
vn -0.6347 0.1558 -0.7569
vn -0.5257 -0.4398 -0.7281
vn 0.0433 -0.6458 -0.7623
vn 0.9207 -0.3451 -0.1823
vn 0.7437 0.6306 -0.2216
vn -0.1791 0.9830 -0.0394
vn -0.9359 0.3311 0.1204
vn -0.7604 -0.6286 0.1629
vn 0.1791 -0.9830 0.0394
s 0
usemtl pants.001
f 52//43 53//43 59//43 58//43
f 51//44 52//44 58//44 57//44
f 60//35 55//35 61//35 66//35
f 59//36 60//36 66//36 65//36
f 58//37 59//37 65//37 64//37
f 57//38 58//38 64//38 63//38
f 56//39 57//39 63//39 62//39
f 55//40 56//40 62//40 61//40
usemtl glowyblue
f 66//47 61//47 67//47 72//47
f 65//48 66//48 72//48 71//48
f 64//49 65//49 71//49 70//49
f 63//50 64//50 70//50 69//50
f 62//51 63//51 69//51 68//51
f 61//52 62//52 68//52 67//52
usemtl metal.002
f 67//27 68//27 40//27 38//27
f 68//28 69//28 42//28 40//28
f 69//29 70//29 44//29 42//29
f 70//30 71//30 46//30 44//30
f 40//31 42//31 44//31 46//31 48//31 38//31
f 71//32 72//32 48//32 46//32
f 72//33 67//33 38//33 48//33
f 37//34 47//34 45//34 43//34 41//34 39//34
f 47//35 37//35 49//35 54//35
f 45//36 47//36 54//36 53//36
f 43//37 45//37 53//37 52//37
f 41//38 43//38 52//38 51//38
f 39//39 41//39 51//39 50//39
f 37//40 39//40 50//40 49//40
f 54//41 49//41 55//41 60//41
f 53//42 54//42 60//42 59//42
f 50//45 51//45 57//45 56//45
f 49//46 50//46 56//46 55//46
o Cylinder.002
v 0.828920 0.663395 0.445778
v 0.876328 0.590401 -0.130595
v 0.735187 0.632401 0.439841
v 0.801845 0.565772 -0.135313
v 0.662695 0.697259 0.421954
v 0.744240 0.617311 -0.149526
v 0.683935 0.793112 0.410004
v 0.761118 0.693479 -0.159022
v 0.777668 0.824107 0.415941
v 0.835601 0.718108 -0.154304
v 0.850160 0.759248 0.433828
v 0.893206 0.666569 -0.140091
v 0.845055 0.641992 0.302778
v 0.751322 0.610998 0.296841
v 0.678829 0.675856 0.278955
v 0.700069 0.771709 0.267005
v 0.793802 0.802704 0.272941
v 0.866295 0.737845 0.290828
v 0.835868 0.649772 0.291226
v 0.755332 0.623141 0.286125
v 0.693045 0.678868 0.270757
v 0.711295 0.761226 0.260489
v 0.791831 0.787856 0.265590
v 0.854117 0.732130 0.280959
v 0.877981 0.593907 -0.082023
v 0.797445 0.567277 -0.087124
v 0.735159 0.623004 -0.102492
v 0.753408 0.705361 -0.112759
v 0.833944 0.731992 -0.107658
v 0.896231 0.676265 -0.092290
v 0.877525 0.590835 -0.098560
v 0.796989 0.564204 -0.103661
v 0.737059 0.620483 -0.119336
v 0.752953 0.702289 -0.129296
v 0.833488 0.728920 -0.124195
v 0.895775 0.673193 -0.108827
vn 0.3139 -0.9495 0.0011
vn -0.6569 -0.7462 -0.1085
vn -0.9475 0.1627 -0.2752
vn -0.2754 0.8984 -0.3419
vn 0.1109 -0.1471 -0.9829
vn 0.6802 0.7038 -0.2050
vn 0.9749 -0.2202 -0.0334
vn -0.1109 0.1471 0.9829
vn 0.9704 -0.1977 0.1391
vn 0.6712 0.7405 -0.0351
vn -0.2992 0.9382 -0.1742
vn -0.9704 0.1977 -0.1391
vn -0.6712 -0.7405 0.0351
vn 0.2992 -0.9382 0.1742
vn 0.6764 -0.2368 -0.6974
vn 0.4950 0.3319 -0.8030
vn -0.0932 0.4517 -0.8873
vn -0.5000 0.0028 -0.8660
vn -0.3186 -0.5659 -0.7604
vn 0.2696 -0.6857 -0.6761
vn 0.9766 -0.2148 0.0130
vn 0.6796 0.7177 -0.1521
vn -0.3001 0.9393 -0.1662
vn -0.9781 0.1942 -0.0749
vn -0.6853 -0.7225 0.0914
vn 0.3001 -0.9393 0.1662
s 0
usemtl pants.001
f 88//69 89//69 95//69 94//69
f 87//70 88//70 94//70 93//70
f 96//61 91//61 97//61 102//61
f 95//62 96//62 102//62 101//62
f 94//63 95//63 101//63 100//63
f 93//64 94//64 100//64 99//64
f 92//65 93//65 99//65 98//65
f 91//66 92//66 98//66 97//66
usemtl glowyblue
f 102//73 97//73 103//73 108//73
f 101//74 102//74 108//74 107//74
f 100//75 101//75 107//75 106//75
f 99//76 100//76 106//76 105//76
f 98//77 99//77 105//77 104//77
f 97//78 98//78 104//78 103//78
usemtl metal.002
f 103//53 104//53 76//53 74//53
f 104//54 105//54 78//54 76//54
f 105//55 106//55 80//55 78//55
f 106//56 107//56 82//56 80//56
f 76//57 78//57 80//57 82//57 84//57 74//57
f 107//58 108//58 84//58 82//58
f 108//59 103//59 74//59 84//59
f 73//60 83//60 81//60 79//60 77//60 75//60
f 83//61 73//61 85//61 90//61
f 81//62 83//62 90//62 89//62
f 79//63 81//63 89//63 88//63
f 77//64 79//64 88//64 87//64
f 75//65 77//65 87//65 86//65
f 73//66 75//66 86//66 85//66
f 90//67 85//67 91//67 96//67
f 89//68 90//68 96//68 95//68
f 86//71 87//71 93//71 92//71
f 85//72 86//72 92//72 91//72
o Cylinder
v -0.406391 0.842988 -0.493143
v -0.421241 0.866155 -0.784529
v 0.121734 0.912687 -0.505252
v 0.121718 0.867130 -0.509908
v 0.162275 0.844605 0.093406
v 0.162189 0.805715 0.090895
v -0.339860 0.748567 0.408761
v -0.271715 0.703610 0.405003
v -0.829058 0.816924 0.147366
v -0.884231 0.834814 0.172208
v -0.924686 0.941787 -0.423939
v -0.924702 0.896230 -0.428595
v -0.145690 0.847331 -0.398546
v -0.029130 0.846434 -0.592885
v -0.012802 0.765531 0.198682
v -0.010513 0.808136 0.213069
v -0.610303 0.840560 -0.392787
v -0.716155 0.735096 0.224504
v -0.712471 0.846406 -0.590320
v -0.707090 0.763824 0.262270
v -0.691734 0.855543 -0.603357
v -0.631985 0.802468 0.011801
v -0.135131 0.838462 -0.064108
v -0.956935 0.866792 -0.140615
v -0.956291 0.901607 -0.131379
v 0.181839 0.830933 -0.278108
v 0.140865 0.855471 -0.175575
v -0.695627 0.893104 -0.596886
v -0.421226 0.911711 -0.779873
v -0.029114 0.891991 -0.588229
v -0.705031 0.822885 0.090225
v -0.013431 0.824172 0.075308
v -0.347793 0.791961 0.143468
v -0.338234 0.785449 0.213503
v -0.537551 1.062405 -0.352904
v -0.414402 1.062519 -0.430383
v -0.198161 1.022394 -0.346814
v -0.570772 0.974241 -0.029441
v -0.194939 1.006397 -0.136196
v -0.373132 0.899207 0.105791
v -0.533536 1.109421 -0.341683
v -0.371474 1.103006 -0.375221
v -0.258394 1.114859 -0.310408
v -0.534692 1.089170 -0.053230
v -0.276871 1.114892 -0.068530
v -0.365364 0.980938 0.076366
v -0.487773 1.095427 -0.295346
v -0.401763 1.096451 -0.337676
v -0.291798 1.098283 -0.297775
v -0.496919 1.081039 -0.109657
v -0.287344 1.096222 -0.141676
v -0.377046 1.076607 -0.054120
v -0.642786 0.761152 0.287921
v -0.669002 0.784233 0.212839
v -0.637678 0.729536 0.256375
v -0.640888 0.739737 0.182461
vn 0.4706 0.0896 -0.8778
vn 0.8427 0.5376 -0.0295
vn 0.5660 -0.1832 0.8038
vn -0.3206 -0.6320 0.7055
vn 0.1284 -0.9861 -0.1053
vn -0.2136 0.9422 0.2580
vn -0.5849 0.0902 -0.8061
vn 0.9505 0.3106 -0.0099
vn 0.4410 0.0911 -0.8929
vn -0.1057 0.9882 0.1105
vn 0.0190 -0.9912 -0.1307
vn 0.5192 0.2193 0.8260
vn -0.5568 0.0846 -0.8263
vn -0.2491 0.4599 0.8524
vn 0.2104 0.9654 0.1538
vn -0.3546 -0.9294 -0.1023
vn -0.0212 0.9680 0.2502
vn -0.9940 0.0265 -0.1061
vn 0.8596 0.5103 0.0265
vn 0.0887 0.9710 0.2218
vn -0.0719 0.9737 0.2164
vn 0.3481 0.9319 0.1024
vn -0.1096 0.9908 0.0790
vn 0.0939 0.9942 -0.0529
vn -0.2571 0.6678 -0.6985
vn -0.0680 0.9853 0.1568
vn -0.0667 0.9879 0.1399
vn 0.3530 0.3102 -0.8827
vn 0.5921 0.4499 0.6686
vn -0.4219 0.2966 0.8568
vn -0.9466 0.3221 -0.0155
vn -0.4622 0.2646 -0.8463
vn 0.0741 0.8991 0.4314
vn 0.7589 0.1695 0.6288
vn 0.8269 0.5603 0.0476
vn 0.3803 0.5577 -0.7378
vn -0.4415 0.3248 0.8365
vn -0.9708 0.2394 -0.0121
vn -0.0389 0.9972 0.0644
vn 0.2638 0.9616 0.0760
vn 0.0888 0.9711 0.2215
vn -0.2858 0.8856 0.3660
vn -0.6114 0.7912 -0.0175
vn -0.1669 0.9587 0.2301
vn 0.7775 0.0642 0.6256
vn 0.3374 -0.7865 0.5173
vn -0.8900 -0.4497 0.0753
s 0
usemtl chaps
f 138//79 111//79 112//79 122//79
f 111//80 135//80 134//80 112//80
f 113//81 124//81 123//81 114//81
f 115//82 161//82 163//82 116//82
f 112//83 134//83 114//83 123//83 122//83
f 117//84 133//84 132//84 118//84
f 119//85 136//85 129//85 110//85 127//85 120//85
f 137//87 138//87 122//87 110//87
f 124//88 113//88 135//88 111//88 138//88 140//88
f 123//89 116//89 163//89 164//89 126//89 127//89 110//89 122//89
f 124//90 115//90 116//90 123//90
f 136//91 137//91 110//91 129//91
f 128//92 117//92 118//92 126//92
f 136//93 119//93 133//93 117//93 128//93 139//93
f 126//94 118//94 132//94 120//94 127//94
f 139//95 128//95 162//95 161//95 115//95 142//95
f 133//96 119//96 120//96 132//96
f 135//97 113//97 114//97 134//97
f 109//98 137//98 136//98 125//98
f 121//99 138//99 137//99 109//99
f 125//100 136//100 139//100 130//100
f 131//101 140//101 138//101 121//101
f 130//102 139//102 142//102 141//102
f 143//103 149//103 150//103 144//103
f 115//104 124//104 140//104 142//104
f 142//105 140//105 131//105 141//105
f 154//111 160//111 158//111 152//111
f 147//112 153//112 154//112 148//112
f 145//113 151//113 153//113 147//113
f 144//114 150//114 151//114 145//114
f 148//115 154//115 152//115 146//115
f 146//116 152//116 149//116 143//116
f 156//117 155//117 158//117 160//117 159//117 157//117
f 152//118 158//118 155//118 149//118
f 149//119 155//119 156//119 150//119
f 153//120 159//120 160//120 154//120
f 151//121 157//121 159//121 153//121
f 150//122 156//122 157//122 151//122
f 128//123 164//123 162//123
f 164//124 128//124 126//124
f 162//125 164//125 163//125 161//125
usemtl leather
f 121//86 145//86 147//86 131//86
f 109//106 144//106 145//106 121//106
f 131//107 147//107 148//107 141//107
f 141//108 148//108 146//108 130//108
f 130//109 146//109 143//109 125//109
f 125//110 143//110 144//110 109//110
